<?xml version="1.0" standalone="no"?>
<!DOCTYPE svg PUBLIC "-//W3C//DTD SVG 20010904//EN"
 "http://www.w3.org/TR/2001/REC-SVG-20010904/DTD/svg10.dtd">
<svg version="1.0" xmlns="http://www.w3.org/2000/svg"
 width="360.000000pt" height="360.000000pt" viewBox="0 0 360.000000 360.000000"
 preserveAspectRatio="xMidYMid meet">
<metadata>
Created by potrace 1.14, written by Peter Selinger 2001-2017
</metadata>
<g transform="translate(0.000000,360.000000) scale(0.100000,-0.100000)"
fill="#000000" stroke="none">
<path d="M0 1800 l0 -1800 1800 0 1800 0 0 1800 0 1800 -1800 0 -1800 0 0
-1800z m3361 1392 c0 -97 16 -796 25 -1167 4 -132 1 -375 -5 -540 -6 -165 -14
-496 -18 -735 l-6 -435 -1517 -2 -1517 -3 -1 1488 -1 1487 1519 -3 1520 -2 1
-88z"/>
<path d="M2481 2669 c-179 -35 -358 -135 -444 -247 -62 -81 -164 -250 -182
-302 -44 -123 -58 -213 -59 -365 0 -190 21 -282 103 -439 46 -89 73 -127 149
-207 185 -195 327 -258 585 -259 104 0 250 22 273 41 6 5 28 15 50 23 21 7 77
36 124 63 47 27 93 52 102 56 16 6 18 35 19 354 1 191 2 376 3 410 0 34 -2 64
-4 67 -3 2 -146 6 -317 8 l-313 4 0 -107 c0 -58 -3 -140 -6 -182 l-7 -77 135
0 c159 0 148 11 148 -141 l0 -96 -72 -17 c-113 -27 -157 -30 -228 -11 -85 22
-132 50 -202 122 -134 136 -163 213 -163 434 l0 156 39 75 c49 95 102 158 176
208 70 47 125 62 245 63 109 1 134 -9 227 -93 l67 -60 28 36 c15 21 42 51 59
68 17 17 45 52 62 77 17 25 49 62 72 83 23 21 40 39 38 40 -116 96 -276 183
-383 211 -65 16 -249 19 -324 4z"/>
<path d="M832 2648 c-8 -8 -59 -12 -160 -12 l-149 -1 -6 -350 c-4 -192 -7
-587 -7 -877 l0 -526 183 -4 c100 -2 183 -4 183 -3 1 0 6 144 11 320 6 176 13
328 18 338 12 28 26 16 85 -71 89 -131 207 -303 253 -366 23 -33 67 -94 97
-138 l55 -78 218 -4 c172 -2 217 0 217 10 0 7 -16 32 -36 56 -63 74 -152 205
-574 832 -36 54 -50 83 -44 91 49 69 118 155 124 155 3 0 16 17 28 38 12 21
36 55 54 74 18 20 68 82 111 137 43 56 83 101 88 101 4 0 16 15 25 33 9 17 34
50 55 72 74 77 142 155 138 158 -2 2 -40 0 -84 -4 -44 -4 -141 -8 -216 -8
l-136 -1 -79 -89 c-44 -49 -133 -158 -197 -243 -65 -84 -140 -181 -167 -216
l-49 -62 0 242 c1 241 -7 408 -20 408 -4 0 -12 -5 -19 -12z"/>
</g>
</svg>
